<?xml version="1.0" encoding="UTF-8"?>
<svg width="90px" height="120px" viewBox="0 0 90 120" version="1.1" xmlns="http://www.w3.org/2000/svg" xmlns:xlink="http://www.w3.org/1999/xlink">
    <title>BF069FC8-57BD-44F7-803E-55CBF6376E74</title>
    <g id="provider_bg" stroke="none" stroke-width="1" fill="none" fill-rule="evenodd">
        <g id="main/provider2-2" transform="translate(-677.000000, -417.000000)" fill="#ECECEC" fill-rule="nonzero">
            <g id="img/lock" transform="translate(677.000000, 417.000000)">
                <path d="M86.4788855,29.2340283 C84.1807523,23.5210168 80.9261706,18.4100792 76.8214124,14.0617683 C72.7166543,9.67331921 67.9078437,6.20804995 62.5278209,3.77299587 C56.961822,1.27104471 51.0770069,0 45.0194997,0 C38.9619925,0 33.0638934,1.27104471 27.4978945,3.78637529 C22.1178716,6.20804995 17.3223451,9.67331921 13.2043029,14.0617683 C9.05969277,18.4635968 5.80511105,23.5745345 3.54682987,29.2340283 C1.19556063,35.0942134 0,41.3290222 0,47.7779017 L0,110.687925 C0,115.825622 3.94535008,120 8.80729663,120 L81.1918507,120 C86.0537973,120 89.9995806,115.825622 89.9725793,110.687925 L89.9725793,55.1633404 L89.9995806,52.6078716 L89.9995806,47.7779017 C90.0257154,41.355781 88.8301547,35.1209722 86.4788855,29.2340283 Z M80.9793066,60.849593 L80.9793066,110.674546 C80.9793066,110.754822 80.9660226,110.821719 80.9527386,110.861858 L9.09954479,110.861858 C9.08626078,110.821719 9.07297677,110.754822 9.07297677,110.674546 L9.07297677,60.849593 L80.9793066,60.849593 Z M44.4310682,70.3987667 C39.6557452,70.3987667 35.7794799,74.3028728 35.7794799,79.1124941 C35.7942185,82.0665516 37.3122996,84.8573195 39.7736544,86.4456821 L39.7736544,99.7315185 C39.7736544,102.329308 41.8665428,104.437228 44.4458068,104.437228 C47.0250708,104.437228 49.1179592,102.329308 49.1179592,99.7315185 L49.1179592,86.415993 C51.5940526,84.8127859 53.0826564,82.1110851 53.0826564,79.1124941 C53.0826564,74.3028728 49.2063911,70.3987667 44.4310682,70.3987667 Z M45.0062157,9.13814249 C49.7751742,9.13814249 54.4245766,10.1549783 58.7950149,12.1083733 C63.0326132,14.0350095 66.8849752,16.804549 70.2192609,20.3233359 C73.5801147,23.8956405 76.1970641,28.0298807 78.0435411,32.6324005 C79.9697221,37.4222321 80.9394546,42.506411 80.9394546,47.7779017 L80.9394546,51.7382094 L9.07297677,51.7382094 L9.07297677,47.7645222 C9.07297677,42.5465492 10.0427093,37.4623704 11.9688903,32.6324005 C13.8286513,27.9897424 16.4721687,23.8555023 19.7931704,20.3367154 C23.1008882,16.8313078 26.8602621,14.0885271 31.0314403,12.2020292 L31.0580083,12.2020292 L31.2307004,12.1351321 C35.5745707,10.1415988 40.2106892,9.13814249 45.0062157,9.13814249 Z" id="Shape"></path>
            </g>
        </g>
    </g>
</svg>